<svg width="25" height="28" viewBox="0 0 25 28" fill="none" xmlns="http://www.w3.org/2000/svg">
<g id="expense">
<g id="Expense">
<path id="Vector" d="M19.6677 12H5.66772C4.34164 12 3.06987 12.5268 2.13219 13.4645C1.19451 14.4021 0.667725 15.6739 0.667725 17V23C0.667725 24.3261 1.19451 25.5979 2.13219 26.5355C3.06987 27.4732 4.34164 28 5.66772 28H19.6677C20.9938 28 22.2656 27.4732 23.2033 26.5355C24.1409 25.5979 24.6677 24.3261 24.6677 23V17C24.6677 15.6739 24.1409 14.4021 23.2033 13.4645C22.2656 12.5268 20.9938 12 19.6677 12ZM12.6677 24C11.8766 24 11.1032 23.7654 10.4454 23.3259C9.78765 22.8864 9.27496 22.2616 8.97221 21.5307C8.66946 20.7998 8.59024 19.9956 8.74458 19.2196C8.89892 18.4437 9.27989 17.731 9.8393 17.1716C10.3987 16.6122 11.1114 16.2312 11.8874 16.0769C12.6633 15.9225 13.4676 16.0017 14.1985 16.3045C14.9294 16.6072 15.5541 17.1199 15.9936 17.7777C16.4331 18.4355 16.6677 19.2089 16.6677 20C16.6677 21.0609 16.2463 22.0783 15.4962 22.8284C14.746 23.5786 13.7286 24 12.6677 24Z" fill="#FD3C4A"/>
<path id="Vector_2" d="M12.6677 22C13.7723 22 14.6677 21.1046 14.6677 20C14.6677 18.8954 13.7723 18 12.6677 18C11.5632 18 10.6677 18.8954 10.6677 20C10.6677 21.1046 11.5632 22 12.6677 22Z" fill="#FD3C4A"/>
<path id="Vector_3" d="M13.3778 0.29C13.2848 0.196272 13.1742 0.121877 13.0524 0.0711086C12.9305 0.0203399 12.7998 -0.00579834 12.6678 -0.00579834C12.5358 -0.00579834 12.4051 0.0203399 12.2832 0.0711086C12.1614 0.121877 12.0508 0.196272 11.9578 0.29L7.71781 4.54C7.5242 4.72698 7.4128 4.98321 7.40811 5.25232C7.40342 5.52144 7.50583 5.78139 7.69281 5.975C7.87979 6.16861 8.13602 6.28001 8.40513 6.2847C8.67425 6.28939 8.9342 6.18698 9.12781 6L11.6678 3.41V9C11.6678 9.26522 11.7732 9.51957 11.9607 9.70711C12.1482 9.89464 12.4026 10 12.6678 10C12.933 10 13.1874 9.89464 13.3749 9.70711C13.5625 9.51957 13.6678 9.26522 13.6678 9V3.41L16.2078 6C16.3941 6.18474 16.6455 6.2889 16.9078 6.29C17.0477 6.29761 17.1877 6.27573 17.3186 6.22577C17.4496 6.17581 17.5685 6.09889 17.6678 6C17.8541 5.81264 17.9586 5.55919 17.9586 5.295C17.9586 5.03081 17.8541 4.77736 17.6678 4.59L13.3778 0.29Z" fill="#FD3C4A"/>
</g>
</g>
</svg>
