<svg width="31" height="33" viewBox="0 0 31 33" fill="none" xmlns="http://www.w3.org/2000/svg">
<g id="recurring bill">
<g id="Recurring Bill">
<path id="Vector" d="M29.25 26.25C28.9185 26.25 28.6005 26.3817 28.3661 26.6161C28.1317 26.8505 28 27.1685 28 27.5C27.9983 27.9384 27.8812 28.3687 27.6607 28.7476C27.4402 29.1265 27.1239 29.4408 26.7436 29.6588C26.3632 29.8769 25.9322 29.9911 25.4938 29.99C25.0554 29.989 24.625 29.8726 24.2457 29.6526C23.8665 29.4327 23.5517 29.1168 23.3331 28.7368C23.1145 28.3568 22.9996 27.926 23 27.4876C23.0005 27.0492 23.1162 26.6186 23.3356 26.239C23.555 25.8594 23.8703 25.5442 24.25 25.325C24.2149 25.5817 24.2604 25.8429 24.3803 26.0725C24.5001 26.3022 24.6883 26.489 24.9189 26.607C25.1495 26.725 25.411 26.7685 25.6674 26.7314C25.9238 26.6944 26.1623 26.5785 26.35 26.4L28.1125 24.6375C28.2297 24.5213 28.3226 24.383 28.3861 24.2307C28.4496 24.0784 28.4822 23.915 28.4822 23.75C28.4822 23.585 28.4496 23.4216 28.3861 23.2693C28.3226 23.117 28.2297 22.9787 28.1125 22.8625L26.35 21.1C26.2338 20.9828 26.0955 20.8898 25.9432 20.8264C25.7909 20.7629 25.6275 20.7303 25.4625 20.7303C25.2975 20.7303 25.1341 20.7629 24.9818 20.8264C24.8295 20.8898 24.6912 20.9828 24.575 21.1C24.3853 21.2991 24.2666 21.5552 24.2372 21.8287C24.2078 22.1021 24.2694 22.3776 24.4125 22.6125C23.4931 22.8174 22.6502 23.2778 21.9811 23.9408C21.3119 24.6037 20.8436 25.4422 20.6301 26.3596C20.4166 27.2771 20.4666 28.2362 20.7744 29.1265C21.0822 30.0167 21.6352 30.8019 22.3697 31.3917C23.1042 31.9814 23.9904 32.3516 24.9261 32.4598C25.8619 32.5679 26.8091 32.4095 27.6588 32.0028C28.5084 31.5961 29.2259 30.9576 29.7286 30.161C30.2312 29.3644 30.4986 28.442 30.5 27.5C30.5 27.1685 30.3683 26.8505 30.1339 26.6161C29.8995 26.3817 29.5815 26.25 29.25 26.25Z" fill="#7F3DFF"/>
<path id="Vector_2" d="M23.725 1.9125C23.1809 1.57645 22.56 1.38511 21.9211 1.35667C21.2823 1.32822 20.6468 1.46362 20.075 1.75L19.7 1.9375C19.5389 2.00994 19.3642 2.04739 19.1875 2.04739C19.0108 2.04739 18.8361 2.00994 18.675 1.9375L14.3875 0.262499C13.4965 -0.0923419 12.5035 -0.0923419 11.6125 0.262499L7.325 1.975C7.16385 2.04744 6.98918 2.08489 6.8125 2.08489C6.63582 2.08489 6.46115 2.04744 6.3 1.975L5.925 1.7875C5.35649 1.50363 4.72517 1.36888 4.0903 1.3959C3.45544 1.42292 2.83785 1.61082 2.29551 1.94197C1.75318 2.27312 1.30389 2.73665 0.98982 3.28905C0.67575 3.84145 0.507203 4.4646 0.5 5.1V23.75C0.5 25.4076 1.15848 26.9973 2.33058 28.1694C3.50269 29.3415 5.0924 30 6.75 30H18.475C18.17 29.2013 18.0092 28.3549 18 27.5V27.4C18.002 26.0538 18.3664 24.733 19.0548 23.5761C19.7432 22.4192 20.7303 21.4689 21.9125 20.825C22.0861 20.2216 22.4085 19.6714 22.85 19.225L23 19.0875C23.2367 18.879 23.4968 18.6987 23.775 18.55C24.234 18.3168 24.7361 18.1807 25.25 18.15H25.5V5.1C25.5 4.46153 25.3369 3.83365 25.0263 3.27584C24.7156 2.71802 24.2677 2.24876 23.725 1.9125ZM15.5 21.25H8C7.66848 21.25 7.35054 21.1183 7.11612 20.8839C6.8817 20.6495 6.75 20.3315 6.75 20C6.75 19.6685 6.8817 19.3505 7.11612 19.1161C7.35054 18.8817 7.66848 18.75 8 18.75H15.5C15.8315 18.75 16.1495 18.8817 16.3839 19.1161C16.6183 19.3505 16.75 19.6685 16.75 20C16.75 20.3315 16.6183 20.6495 16.3839 20.8839C16.1495 21.1183 15.8315 21.25 15.5 21.25ZM18 13.75H8C7.66848 13.75 7.35054 13.6183 7.11612 13.3839C6.8817 13.1495 6.75 12.8315 6.75 12.5C6.75 12.1685 6.8817 11.8505 7.11612 11.6161C7.35054 11.3817 7.66848 11.25 8 11.25H18C18.3315 11.25 18.6495 11.3817 18.8839 11.6161C19.1183 11.8505 19.25 12.1685 19.25 12.5C19.25 12.8315 19.1183 13.1495 18.8839 13.3839C18.6495 13.6183 18.3315 13.75 18 13.75Z" fill="#7F3DFF"/>
</g>
</g>
</svg>
