<svg width="28" height="24" viewBox="0 0 28 24" fill="none" xmlns="http://www.w3.org/2000/svg">
<g id="car">
<path id="car_2" d="M25.0001 9.99999H23.4901C23.2682 10.0095 23.0495 9.94484 22.8684 9.81628C22.6874 9.68773 22.5542 9.50256 22.4901 9.28999L20.8101 3.55999C20.4995 2.52722 19.8633 1.62255 18.9964 0.980969C18.1296 0.339386 17.0785 -0.00472267 16.0001 -1.33345e-05H7.71006C6.71152 0.000219065 5.73593 0.299424 4.90895 0.859057C4.08198 1.41869 3.44151 2.21311 3.07006 3.13999L0.220056 10.27C0.0724756 10.6248 -0.00233698 11.0057 5.56271e-05 11.39V16C9.13489e-05 17.1717 0.411613 18.3061 1.16279 19.2054C1.91396 20.1046 2.95708 20.7114 4.11006 20.92C4.31774 21.7873 4.8093 22.5603 5.50664 23.1162C6.20397 23.6721 7.06708 23.979 7.95884 23.9882C8.85059 23.9974 9.71985 23.7083 10.4285 23.1669C11.1371 22.6255 11.6445 21.8628 11.8701 21H16.1301C16.3538 21.856 16.855 22.6136 17.5553 23.1544C18.2555 23.6952 19.1153 23.9885 20.0001 23.9885C20.8848 23.9885 21.7446 23.6952 22.4449 23.1544C23.1451 22.6136 23.6463 21.856 23.8701 21H25.0001C25.7957 21 26.5588 20.6839 27.1214 20.1213C27.684 19.5587 28.0001 18.7956 28.0001 18V13C28.0001 12.2043 27.684 11.4413 27.1214 10.8787C26.5588 10.3161 25.7957 9.99999 25.0001 9.99999ZM8.00006 22C7.60449 22 7.21781 21.8827 6.88892 21.6629C6.56002 21.4432 6.30367 21.1308 6.1523 20.7654C6.00092 20.3999 5.96131 19.9978 6.03849 19.6098C6.11566 19.2218 6.30614 18.8655 6.58584 18.5858C6.86555 18.3061 7.22191 18.1156 7.60988 18.0384C7.99784 17.9612 8.39997 18.0009 8.76542 18.1522C9.13087 18.3036 9.44323 18.5599 9.66299 18.8888C9.88276 19.2177 10.0001 19.6044 10.0001 20C10.0001 20.5304 9.78934 21.0391 9.41427 21.4142C9.0392 21.7893 8.53049 22 8.00006 22ZM13.0001 9.99999H2.47006L4.92006 3.88999C5.14236 3.33179 5.52716 2.85321 6.02461 2.51623C6.52205 2.17925 7.10922 1.99941 7.71006 1.99999H13.0001V9.99999ZM15.0001 9.99999V1.99999H16.0001C16.65 1.99438 17.2842 2.20002 17.8072 2.58596C18.3302 2.97191 18.7137 3.51727 18.9001 4.13999L20.6101 9.85999C20.6258 9.90837 20.6459 9.95523 20.6701 9.99999H15.0001ZM20.0001 22C19.6045 22 19.2178 21.8827 18.8889 21.6629C18.56 21.4432 18.3037 21.1308 18.1523 20.7654C18.0009 20.3999 17.9613 19.9978 18.0385 19.6098C18.1157 19.2218 18.3061 18.8655 18.5858 18.5858C18.8655 18.3061 19.2219 18.1156 19.6099 18.0384C19.9978 17.9612 20.4 18.0009 20.7654 18.1522C21.1309 18.3036 21.4432 18.5599 21.663 18.8888C21.8828 19.2177 22.0001 19.6044 22.0001 20C22.0001 20.5304 21.7893 21.0391 21.4143 21.4142C21.0392 21.7893 20.5305 22 20.0001 22ZM26.0001 16H25.0001C24.7348 16 24.4805 15.8946 24.2929 15.7071C24.1054 15.5196 24.0001 15.2652 24.0001 15C24.0001 14.7348 24.1054 14.4804 24.2929 14.2929C24.4805 14.1053 24.7348 14 25.0001 14H26.0001V16Z" fill="#004685"/>
</g>
</svg>
